<svg width="375" height="812" viewBox="0 0 375 812" fill="none" xmlns="http://www.w3.org/2000/svg">
<g clip-path="url(#clip0_973_43604)">
<rect width="375" height="812" fill="white"/>
<path d="M426.293 735.496C700.388 735.496 922.586 513.298 922.586 239.203C922.586 -34.892 700.388 -257.09 426.293 -257.09C152.198 -257.09 -70 -34.892 -70 239.203C-70 513.298 152.198 735.496 426.293 735.496Z" stroke="#BDB8FB" stroke-width="2" stroke-miterlimit="10"/>
<path d="M741.368 1047C873.266 598.06 616.252 127.197 167.312 -4.70068" stroke="#BDB8FB" stroke-width="2" stroke-miterlimit="10"/>
<path d="M1112.33 292.945C663.393 161.047 192.531 418.06 60.6328 867.001" stroke="#BDB8FB" stroke-width="2" stroke-miterlimit="10"/>
<path d="M328.279 -108.021C196.381 340.919 453.395 811.782 902.335 943.68" stroke="#BDB8FB" stroke-width="2" stroke-miterlimit="10"/>
<path d="M351.022 442.165C353.783 442.165 356.022 439.927 356.022 437.165C356.022 434.404 353.783 432.165 351.022 432.165C348.261 432.165 346.022 434.404 346.022 437.165C346.022 439.927 348.261 442.165 351.022 442.165Z" fill="#A6DF84"/>
<path d="M156 661C158.761 661 161 658.761 161 655.999C161 653.238 158.761 651 156 651C153.239 651 151 653.238 151 655.999C151 658.761 153.239 661 156 661Z" fill="#FF9227"/>
<path d="M298 49.9995C300.761 49.9995 303 47.7609 303 44.9995C303 42.2381 300.761 39.9995 298 39.9995C295.239 39.9995 293 42.2381 293 44.9995C293 47.7609 295.239 49.9995 298 49.9995Z" fill="#48BDE1"/>
<path opacity="0.44" fill-rule="evenodd" clip-rule="evenodd" d="M368 8L368.46 8.30662C369.11 8.73981 369.5 9.46907 369.5 10.25C369.5 11.0309 369.11 11.7602 368.46 12.1934L368 12.5V8ZM345 4.5H365C366.105 4.5 367 5.39543 367 6.5V14C367 15.1046 366.105 16 365 16H345C343.895 16 343 15.1046 343 14V6.5C343 5.39543 343.895 4.5 345 4.5ZM345 5.5C344.448 5.5 344 5.94772 344 6.5V14C344 14.5523 344.448 15 345 15H365C365.552 15 366 14.5523 366 14V6.5C366 5.94772 365.552 5.5 365 5.5H345Z" fill="white"/>
<path fill-rule="evenodd" clip-rule="evenodd" d="M346 6.5H361V14H346C345.448 14 345 13.5523 345 13V7.5C345 6.94772 345.448 6.5 346 6.5Z" fill="white"/>
<path d="M174.26 14H175.771V5.54492H174.266L172.057 7.0918V8.54492L174.16 7.06836H174.26V14Z" fill="white"/>
<path d="M181.127 14.2051C183.277 14.2051 184.555 12.5234 184.555 9.67578C184.555 8.60352 184.35 7.70117 183.957 7.00391C183.389 5.91992 182.41 5.33398 181.174 5.33398C179.334 5.33398 178.033 6.57031 178.033 8.30469C178.033 9.93359 179.205 11.1172 180.816 11.1172C181.807 11.1172 182.609 10.6543 183.008 9.85156H183.025C183.025 9.85156 183.049 9.85156 183.055 9.85156C183.066 9.85156 183.107 9.85156 183.107 9.85156C183.107 11.7852 182.375 12.9395 181.139 12.9395C180.412 12.9395 179.85 12.541 179.656 11.9023H178.15C178.402 13.291 179.58 14.2051 181.127 14.2051ZM181.18 9.91602C180.207 9.91602 179.516 9.22461 179.516 8.25781C179.516 7.31445 180.242 6.59375 181.186 6.59375C182.129 6.59375 182.855 7.32617 182.855 8.28125C182.855 9.22461 182.146 9.91602 181.18 9.91602Z" fill="white"/>
<path d="M187.209 13.1035C187.766 13.1035 188.146 12.7051 188.146 12.1777C188.146 11.6445 187.766 11.252 187.209 11.252C186.658 11.252 186.271 11.6445 186.271 12.1777C186.271 12.7051 186.658 13.1035 187.209 13.1035ZM187.209 8.70898C187.766 8.70898 188.146 8.31641 188.146 7.78906C188.146 7.25586 187.766 6.86328 187.209 6.86328C186.658 6.86328 186.271 7.25586 186.271 7.78906C186.271 8.31641 186.658 8.70898 187.209 8.70898Z" fill="white"/>
<path d="M193.115 14.2109C195.137 14.2109 196.338 12.5703 196.338 9.77539C196.338 6.96875 195.119 5.33398 193.115 5.33398C191.105 5.33398 189.887 6.96875 189.887 9.76367C189.887 12.5703 191.088 14.2109 193.115 14.2109ZM193.115 12.957C192.043 12.957 191.416 11.8438 191.416 9.76367C191.416 7.70117 192.055 6.59375 193.115 6.59375C194.176 6.59375 194.809 7.69531 194.809 9.76367C194.809 11.8438 194.188 12.957 193.115 12.957Z" fill="white"/>
<path d="M197.908 8.01758V8.04102H199.326V8.01758C199.326 7.15625 199.924 6.57617 200.809 6.57617C201.641 6.57617 202.25 7.11523 202.25 7.85938C202.25 8.45703 201.963 8.89648 200.809 10.0684L197.99 12.9512V14H203.861V12.7168H200.064V12.6172L201.834 10.8418C203.27 9.42383 203.732 8.67383 203.732 7.76562C203.732 6.35352 202.525 5.33398 200.855 5.33398C199.121 5.33398 197.908 6.43555 197.908 8.01758Z" fill="white"/>
<path fill-rule="evenodd" clip-rule="evenodd" d="M20.5 4.5C19.9477 4.5 19.5 4.94772 19.5 5.5V13.5C19.5 14.0523 19.9477 14.5 20.5 14.5H21.5C22.0523 14.5 22.5 14.0523 22.5 13.5V5.5C22.5 4.94772 22.0523 4.5 21.5 4.5H20.5ZM15 7.5C15 6.94772 15.4477 6.5 16 6.5H17C17.5523 6.5 18 6.94772 18 7.5V13.5C18 14.0523 17.5523 14.5 17 14.5H16C15.4477 14.5 15 14.0523 15 13.5V7.5ZM11.5 8.5C10.9477 8.5 10.5 8.94772 10.5 9.5V13.5C10.5 14.0523 10.9477 14.5 11.5 14.5H12.5C13.0523 14.5 13.5 14.0523 13.5 13.5V9.5C13.5 8.94772 13.0523 8.5 12.5 8.5H11.5ZM7 14.5C6.44772 14.5 6 14.0523 6 13.5V11C6 10.4477 6.44772 10 7 10H8C8.55228 10 9 10.4477 9 11V13.5C9 14.0523 8.55228 14.5 8 14.5H7Z" fill="white"/>
<path d="M30.9199 14.2051C31.5762 14.2051 32.1465 14.0977 32.6309 13.8828C33.1152 13.668 33.4883 13.3652 33.75 12.9746C34.0156 12.5801 34.1484 12.1133 34.1484 11.5742V11.5684C34.1484 11.1504 34.0625 10.791 33.8906 10.4902C33.7227 10.1855 33.4551 9.92969 33.0879 9.72266C32.7207 9.51562 32.2422 9.34961 31.6523 9.22461L30.7266 9.01953C30.1836 8.90234 29.791 8.74023 29.5488 8.5332C29.3105 8.32227 29.1914 8.06055 29.1914 7.74805V7.74219C29.1914 7.47656 29.2656 7.25 29.4141 7.0625C29.5664 6.875 29.7715 6.73242 30.0293 6.63477C30.2871 6.5332 30.5801 6.48242 30.9082 6.48242C31.248 6.47852 31.5449 6.5293 31.7988 6.63477C32.0566 6.73633 32.2617 6.87695 32.4141 7.05664C32.5703 7.23633 32.666 7.44141 32.7012 7.67188L32.7129 7.74805H33.9961L33.9902 7.67188C33.959 7.23047 33.8125 6.83398 33.5508 6.48242C33.293 6.13086 32.9395 5.85352 32.4902 5.65039C32.0449 5.44336 31.5234 5.33984 30.9258 5.33984C30.3281 5.33984 29.7988 5.44336 29.3379 5.65039C28.877 5.85742 28.5156 6.14648 28.2539 6.51758C27.9961 6.88867 27.8652 7.31836 27.8613 7.80664V7.8125C27.8613 8.4375 28.0566 8.95117 28.4473 9.35352C28.8379 9.75195 29.4609 10.043 30.3164 10.2266L31.2422 10.4199C31.8008 10.541 32.2031 10.709 32.4492 10.9238C32.6953 11.1387 32.8184 11.4082 32.8184 11.7324V11.7383C32.8184 11.9961 32.7383 12.2246 32.5781 12.4238C32.4219 12.623 32.2051 12.7793 31.9277 12.8926C31.6504 13.0059 31.334 13.0625 30.9785 13.0625C30.5996 13.0625 30.2617 13.0098 29.9648 12.9043C29.6719 12.7988 29.4375 12.6523 29.2617 12.4648C29.0898 12.2773 28.9902 12.0566 28.9629 11.8027L28.957 11.7383H27.6621L27.668 11.8145C27.707 12.2871 27.8633 12.7031 28.1367 13.0625C28.4102 13.4219 28.7832 13.7031 29.2559 13.9062C29.7285 14.1055 30.2832 14.2051 30.9199 14.2051ZM38.2823 14.123C38.6925 14.123 39.0538 14.0703 39.3663 13.9648C39.6827 13.8594 39.9523 13.7207 40.1749 13.5488C40.4015 13.377 40.5831 13.1875 40.7198 12.9805C40.8566 12.7695 40.9523 12.5586 41.007 12.3477L41.0187 12.2949H39.7882L39.7648 12.3418C39.7179 12.4512 39.63 12.5625 39.5011 12.6758C39.3761 12.7891 39.214 12.8848 39.0148 12.9629C38.8195 13.0371 38.5851 13.0742 38.3116 13.0742C37.9562 13.0742 37.6476 12.9961 37.3859 12.8398C37.128 12.6836 36.9288 12.457 36.7882 12.1602C36.6476 11.8633 36.5773 11.5059 36.5773 11.0879V10.5781C36.5773 10.1406 36.6476 9.77148 36.7882 9.4707C36.9327 9.16992 37.128 8.94336 37.3741 8.79102C37.6241 8.63477 37.9073 8.55664 38.2238 8.55664C38.5402 8.55664 38.8195 8.63086 39.0616 8.7793C39.3038 8.92773 39.4933 9.15234 39.63 9.45312C39.7706 9.75 39.8409 10.125 39.8409 10.5781V11.0879L40.4503 10.2441H35.9386V11.1523H41.0831V10.707C41.0831 10.0664 40.9679 9.50781 40.7374 9.03125C40.507 8.55078 40.1769 8.17773 39.7472 7.91211C39.3214 7.64648 38.8116 7.51367 38.2179 7.51367C37.628 7.51367 37.1124 7.65234 36.671 7.92969C36.2335 8.20703 35.8937 8.59375 35.6515 9.08984C35.4132 9.58594 35.2941 10.166 35.2941 10.8301V10.8359C35.2941 11.5078 35.4132 12.0898 35.6515 12.582C35.8937 13.0742 36.2374 13.4551 36.6827 13.7246C37.128 13.9902 37.6613 14.123 38.2823 14.123ZM42.4748 14H43.7463V10.1973C43.7463 9.88867 43.8147 9.62305 43.9514 9.40039C44.092 9.17383 44.2834 8.99805 44.5256 8.87305C44.7717 8.74805 45.0569 8.68555 45.3811 8.68555C45.5022 8.68555 45.6174 8.69141 45.7268 8.70312C45.8401 8.71484 45.9534 8.73242 46.0666 8.75586V7.58398C46.0041 7.56836 45.9221 7.55469 45.8205 7.54297C45.719 7.53125 45.6155 7.52539 45.51 7.52539C45.0881 7.52539 44.7327 7.61914 44.4436 7.80664C44.1584 7.99414 43.9592 8.25781 43.8459 8.59766H43.7463V7.63672H42.4748V14ZM49.0052 14H50.3646L52.6615 7.63672H51.3197L49.7377 12.7109H49.6439L48.056 7.63672H46.7025L49.0052 14ZM53.8423 14H55.1196V7.63672H53.8423V14ZM54.4868 6.5C54.7055 6.5 54.893 6.42188 55.0493 6.26562C55.2055 6.10938 55.2837 5.92188 55.2837 5.70312C55.2837 5.48438 55.2055 5.29883 55.0493 5.14648C54.893 4.99023 54.7055 4.91211 54.4868 4.91211C54.268 4.91211 54.0805 4.99023 53.9243 5.14648C53.768 5.29883 53.6899 5.48438 53.6899 5.70312C53.6899 5.92188 53.768 6.10938 53.9243 6.26562C54.0805 6.42188 54.268 6.5 54.4868 6.5ZM59.523 14.123C60.0504 14.123 60.5016 14.0352 60.8766 13.8594C61.2555 13.6797 61.5582 13.4336 61.7848 13.1211C62.0113 12.8086 62.1617 12.4453 62.2359 12.0312L62.2477 11.9785L61.0289 11.9844L61.0172 12.0137C60.9156 12.3574 60.7398 12.6172 60.4898 12.793C60.2437 12.9688 59.9215 13.0566 59.523 13.0566C59.1754 13.0566 58.8746 12.9668 58.6207 12.7871C58.3668 12.6035 58.1715 12.3438 58.0348 12.0078C57.898 11.6719 57.8297 11.2695 57.8297 10.8008V10.7891C57.8297 10.332 57.8961 9.9375 58.0289 9.60547C58.1656 9.27344 58.3609 9.01953 58.6148 8.84375C58.8687 8.66406 59.1715 8.57422 59.523 8.57422C59.9449 8.57422 60.2828 8.67969 60.5367 8.89062C60.7906 9.09766 60.9527 9.35742 61.023 9.66992L61.0289 9.68164H62.2535L62.2477 9.65234C62.1891 9.24219 62.0445 8.87695 61.8141 8.55664C61.5875 8.23242 61.2809 7.97852 60.8941 7.79492C60.5113 7.60742 60.0523 7.51367 59.5172 7.51367C58.9 7.51367 58.3668 7.64648 57.9176 7.91211C57.4723 8.17773 57.1285 8.55469 56.8863 9.04297C56.648 9.53125 56.5289 10.1133 56.5289 10.7891V10.8008C56.5289 11.4883 56.65 12.0801 56.8922 12.5762C57.1344 13.0723 57.4781 13.4551 57.9234 13.7246C58.3727 13.9902 58.9059 14.123 59.523 14.123ZM66.2409 14.123C66.6511 14.123 67.0124 14.0703 67.3249 13.9648C67.6413 13.8594 67.9109 13.7207 68.1335 13.5488C68.3601 13.377 68.5417 13.1875 68.6784 12.9805C68.8152 12.7695 68.9109 12.5586 68.9655 12.3477L68.9773 12.2949H67.7468L67.7234 12.3418C67.6765 12.4512 67.5886 12.5625 67.4597 12.6758C67.3347 12.7891 67.1726 12.8848 66.9734 12.9629C66.778 13.0371 66.5437 13.0742 66.2702 13.0742C65.9148 13.0742 65.6062 12.9961 65.3445 12.8398C65.0866 12.6836 64.8874 12.457 64.7468 12.1602C64.6062 11.8633 64.5359 11.5059 64.5359 11.0879V10.5781C64.5359 10.1406 64.6062 9.77148 64.7468 9.4707C64.8913 9.16992 65.0866 8.94336 65.3327 8.79102C65.5827 8.63477 65.8659 8.55664 66.1823 8.55664C66.4987 8.55664 66.778 8.63086 67.0202 8.7793C67.2624 8.92773 67.4519 9.15234 67.5886 9.45312C67.7292 9.75 67.7995 10.125 67.7995 10.5781V11.0879L68.4089 10.2441H63.8972V11.1523H69.0417V10.707C69.0417 10.0664 68.9265 9.50781 68.696 9.03125C68.4655 8.55078 68.1355 8.17773 67.7058 7.91211C67.28 7.64648 66.7702 7.51367 66.1765 7.51367C65.5866 7.51367 65.071 7.65234 64.6296 7.92969C64.1921 8.20703 63.8523 8.59375 63.6101 9.08984C63.3718 9.58594 63.2527 10.166 63.2527 10.8301V10.8359C63.2527 11.5078 63.3718 12.0898 63.6101 12.582C63.8523 13.0742 64.196 13.4551 64.6413 13.7246C65.0866 13.9902 65.6198 14.123 66.2409 14.123Z" fill="white"/>
</g>
<defs>
<clipPath id="clip0_973_43604">
<rect width="375" height="812" fill="white"/>
</clipPath>
</defs>
</svg>
